<?xml version="1.0" standalone="no"?>
<!DOCTYPE svg PUBLIC "-//W3C//DTD SVG 20010904//EN"
 "http://www.w3.org/TR/2001/REC-SVG-20010904/DTD/svg10.dtd">
<svg version="1.0" xmlns="http://www.w3.org/2000/svg"
 width="145.000000pt" height="82.000000pt" viewBox="0 0 145.000000 82.000000"
 preserveAspectRatio="xMidYMid meet">

<g transform="translate(0.000000,82.000000) scale(0.100000,-0.100000)"
fill="#000000" stroke="none">
<path d="M290 645 c-53 -17 -107 -59 -134 -105 l-18 -32 43 7 c89 14 243 105
225 133 -9 16 -60 14 -116 -3z"/>
<path d="M491 633 c30 -80 -96 -249 -242 -322 -76 -38 -129 -41 -153 -8 l-16
22 9 -25 c12 -38 47 -52 117 -47 83 6 144 36 220 108 62 61 124 160 124 201 0
21 -39 85 -57 92 -9 4 -10 -1 -2 -21z"/>
<path d="M592 634 c-12 -8 -22 -20 -22 -26 0 -6 9 -3 20 7 21 19 28 7 8 -13
-6 -6 -8 -15 -5 -19 10 -9 33 16 42 45 8 27 -10 29 -43 6z"/>
<path d="M442 571 c-64 -80 -217 -171 -287 -171 -20 0 -25 -5 -25 -25 0 -36
21 -75 40 -75 35 0 138 62 198 119 40 38 72 79 88 115 33 73 27 88 -14 37z"/>
<path d="M710 580 c0 -5 9 -10 20 -10 18 0 20 -7 20 -55 0 -70 18 -72 22 -2 3
45 6 52 26 55 12 2 20 8 17 13 -8 12 -105 12 -105 -1z"/>
<path d="M814 535 c-15 -23 -15 -27 0 -50 17 -25 31 -30 60 -19 25 10 19 25
-8 18 -13 -3 -27 -1 -30 5 -5 7 5 11 28 11 40 0 47 17 20 44 -23 23 -51 20
-70 -9z m56 -5 c0 -5 -9 -10 -21 -10 -11 0 -17 5 -14 10 3 6 13 10 21 10 8 0
14 -4 14 -10z"/>
<path d="M920 508 c0 -57 17 -65 22 -10 2 25 8 37 18 37 10 0 16 -12 18 -37 2
-21 7 -38 12 -38 5 0 10 17 12 38 2 25 8 37 18 37 10 0 16 -12 18 -37 2 -21 7
-38 13 -38 14 0 11 78 -3 87 -7 4 -39 7 -71 8 l-57 0 0 -47z"/>
<path d="M1090 493 c0 -35 4 -63 10 -63 6 0 10 9 10 19 0 14 5 18 20 14 26 -7
50 13 50 41 0 35 -17 50 -54 51 l-36 2 0 -64z m60 31 c11 -12 11 -18 -2 -31
-19 -18 -38 -10 -38 16 0 33 20 40 40 15z"/>
<path d="M1210 540 c-25 -25 -25 -32 -1 -61 16 -20 23 -22 47 -14 34 12 44 54
19 79 -22 21 -41 20 -65 -4z m49 -14 c14 -17 4 -46 -15 -46 -18 0 -28 24 -20
45 7 19 20 19 35 1z"/>
<path d="M602 424 c-1 -6 -28 -37 -59 -68 -71 -71 -162 -117 -246 -126 -62 -6
-62 -6 -23 -14 55 -12 152 -1 227 27 58 21 66 28 87 69 16 32 22 58 19 85 -2
21 -4 33 -5 27z"/>
<path d="M727 383 c-16 -16 -6 -43 18 -49 14 -4 29 -4 32 0 4 3 -3 6 -15 6
-16 0 -22 6 -22 21 0 18 5 21 30 17 17 -3 30 -1 30 4 0 10 -64 11 -73 1z"/>
<path d="M870 356 c0 -2 9 -6 20 -9 11 -3 20 -1 20 4 0 5 -9 9 -20 9 -11 0
-20 -2 -20 -4z"/>
<path d="M1295 350 c3 -5 11 -10 16 -10 6 0 7 5 4 10 -3 6 -11 10 -16 10 -6 0
-7 -4 -4 -10z"/>
<path d="M842 320 c0 -14 2 -19 5 -12 2 6 2 18 0 25 -3 6 -5 1 -5 -13z"/>
<path d="M1064 327 c-8 -21 2 -35 16 -21 5 5 6 15 0 24 -8 12 -10 12 -16 -3z"/>
<path d="M790 316 c0 -9 5 -16 10 -16 6 0 10 4 10 9 0 6 -4 13 -10 16 -5 3
-10 -1 -10 -9z"/>
<path d="M910 314 c0 -8 5 -12 10 -9 6 4 8 11 5 16 -9 14 -15 11 -15 -7z"/>
<path d="M1022 310 c0 -14 2 -19 5 -12 2 6 2 18 0 25 -3 6 -5 1 -5 -13z"/>
<path d="M1240 315 c0 -9 5 -15 11 -13 6 2 11 8 11 13 0 5 -5 11 -11 13 -6 2
-11 -4 -11 -13z"/>
<path d="M770 279 c0 -5 5 -7 10 -4 6 3 10 8 10 11 0 2 -4 4 -10 4 -5 0 -10
-5 -10 -11z"/>
<path d="M508 224 c-12 -11 -125 -33 -178 -35 -43 -1 -49 -3 -30 -9 50 -16
114 -10 168 15 28 13 52 27 52 30 0 7 -5 6 -12 -1z"/>
</g>
</svg>
